<svg xmlns="http://www.w3.org/2000/svg" width="16" height="14.859" viewBox="0 0 16 14.859"><g fill="none" fill-rule="evenodd"><path d="M0-1h16v16H0z" opacity=".1"/><path fill="currentColor" fill-rule="nonzero" d="M9.143 12.278V10.58a.29.29 0 0 0-.286-.295H7.143a.29.29 0 0 0-.286.295v1.697c0 .16.125.295.286.295h1.714a.29.29 0 0 0 .286-.295m-.018-3.34.16-4.098a.22.22 0 0 0-.088-.17c-.054-.044-.134-.098-.215-.098H7.018c-.08 0-.16.054-.214.098a.25.25 0 0 0-.09.188l.153 4.08c0 .117.134.206.303.206h1.652c.161 0 .295-.09.304-.205M9 .599l6.858 12.573a1.142 1.142 0 0 1-1 1.688H1.142c-.401 0-.776-.215-.982-.563a1.13 1.13 0 0 1-.018-1.125L7 .598a1.136 1.136 0 0 1 2 0"/></g></svg>
