<?xml version="1.0" encoding="UTF-8"?>
<svg width="591px" height="511px" viewBox="0 0 591 511" version="1.1" xmlns="http://www.w3.org/2000/svg" xmlns:xlink="http://www.w3.org/1999/xlink">
    <title>clustermanagement</title>
    <g id="clustermanagement" stroke="none" stroke-width="1" fill="none" fill-rule="evenodd">
        <rect fill="#FFFFFF" x="0" y="0" width="591" height="511"></rect>
        <g id="Group" transform="translate(11.000000, 23.000000)">
            <g id="Group-9" transform="translate(175.000000, 0.000000)" fill="#257AED">
                <g id="Group-8" transform="translate(0.000000, -0.000000)">
                    <rect id="Rectangle-2" x="0" y="0" width="229" height="70" rx="4"></rect>
                </g>
            </g>
            <text id="Create/Import-Cluste" font-family="PingFangSC-Medium, PingFang SC" font-size="20" font-weight="400" letter-spacing="1.166667" fill="#FFFFFF">
                <tspan x="208.256664" y="30">Create/Import  </tspan>
                <tspan x="239.393332" y="58">Clusters</tspan>
            </text>
            <g id="Group-6" transform="translate(0.000000, 244.000000)" fill="#257AED">
                <rect id="Rectangle-2" x="0" y="0" width="168" height="56" rx="4"></rect>
            </g>
            <text id="Create-Project" font-family="PingFangSC-Medium, PingFang SC" font-size="20" font-weight="400" letter-spacing="1.166667" fill="#FFFFFF">
                <tspan x="7.633331" y="279">Create Project</tspan>
            </text>
            <text id="YES" font-family="PingFangSC-Medium, PingFang SC" font-size="20" font-weight="400" letter-spacing="1.166667" fill="#257AED">
                <tspan x="500.529999" y="211">YES</tspan>
            </text>
            <text id="NO" font-family="PingFangSC-Medium, PingFang SC" font-size="20" font-weight="400" letter-spacing="1.166667" fill="#257AED">
                <tspan x="41.313333" y="210">NO</tspan>
            </text>
            <g id="Group-6" transform="translate(404.000000, 243.000000)" fill="#257AED">
                <rect id="Rectangle-2" x="0" y="0" width="168" height="56" rx="4"></rect>
            </g>
            <text id="Add-Cluster" font-family="PingFangSC-Medium, PingFang SC" font-size="20" font-weight="400" letter-spacing="1.166667" fill="#FFFFFF">
                <tspan x="426.313332" y="278">Add Cluster</tspan>
            </text>
            <path d="M139,394 L373,394 C375.209139,394 377,395.790861 377,398 L377,460 C377,462.209139 375.209139,464 373,464 L139,464 C136.790861,464 135,462.209139 135,460 L135,398 C135,395.790861 136.790861,394 139,394 Z" id="Rectangle-2" fill="#257AED"></path>
            <text id="Create-/-Import-Name" font-family="PingFangSC-Medium, PingFang SC" font-size="20" font-weight="400" letter-spacing="1.166667" fill="#FFFFFF">
                <tspan x="173.429997" y="421">Create / Import </tspan>
                <tspan x="195.269998" y="449">Namespace</tspan>
            </text>
            <path id="Line-5-Copy-5" d="M86,189 L86,229 L92,229 L85,243 L78,229 L84,229 L84,189 L86,189 Z" fill="#257AED" fill-rule="nonzero"></path>
            <path id="Line-5-Copy-7" d="M257.25,339.5 L257.25,379.5 L263.25,379.5 L256.25,393.5 L249.25,379.5 L255.25,379.5 L255.25,339.5 L257.25,339.5 Z" fill="#257AED" fill-rule="nonzero"></path>
            <path id="Line-5-Copy-6" d="M489,189 L489,229 L495,229 L488,243 L481,229 L487,229 L487,189 L489,189 Z" fill="#257AED" fill-rule="nonzero"></path>
            <path id="Line-5-Copy-9" d="M284.25,69.5 L284.25,109.5 L290.25,109.5 L283.25,123.5 L276.25,109.5 L282.25,109.5 L282.25,69.5 L284.25,69.5 Z" fill="#257AED" fill-rule="nonzero"></path>
            <line x1="84" y1="301" x2="84" y2="341" id="Line-Copy-4" stroke="#257AED" stroke-width="2" stroke-linecap="square"></line>
            <line x1="488" y1="300" x2="488" y2="340" id="Line-Copy-5" stroke="#257AED" stroke-width="2" stroke-linecap="square"></line>
            <line x1="135" y1="189.25" x2="85" y2="189.25" id="Line-Copy-2" stroke="#257AED" stroke-width="2" stroke-linecap="square"></line>
            <line x1="488" y1="341" x2="84" y2="341.201389" id="Line-Copy-6" stroke="#257AED" stroke-width="2" stroke-linecap="square"></line>
            <line x1="488" y1="190" x2="435" y2="190" id="Line-Copy-3" stroke="#257AED" stroke-width="2" stroke-linecap="square"></line>
            <polygon id="Rectangle-3" fill="#257AED" points="282.235584 123 435 189.5 286.274268 256 134 189.5"></polygon>
            <text id="Whether-to-associate" font-family="PingFangSC-Medium, PingFang SC" font-size="20" font-weight="400" letter-spacing="1.166667" fill="#FFFFFF">
                <tspan x="227.746665" y="161">Whether to </tspan>
                <tspan x="209.473331" y="189">associate with </tspan>
                <tspan x="197.413331" y="217">existing projects</tspan>
            </text>
        </g>
    </g>
</svg>