<svg xmlns="http://www.w3.org/2000/svg" xmlns:xlink="http://www.w3.org/1999/xlink" width="16" height="16" viewBox="0 0 16 16"><defs><path id="a" d="M8 0a8 8 0 1 1 0 16A8 8 0 0 1 8 0m0 1.2a6.8 6.8 0 1 0 0 13.6A6.8 6.8 0 0 0 8 1.2m0 9.7a1 1 0 1 1 0 2 1 1 0 0 1 0-2m0-8a2.9 2.9 0 0 1 2.9 2.9c0 .906-.578 1.716-1.641 2.453A1.3 1.3 0 0 0 8.7 9.286v.814H7.3v-.778a2.7 2.7 0 0 1 1.16-2.219C9.186 6.601 9.5 6.16 9.5 5.8a1.5 1.5 0 0 0-3-.031V5.8H5.1A2.9 2.9 0 0 1 8 2.9"/></defs><g fill="currentColor" fill-rule="evenodd"><mask id="b" fill="#fff"><use xlink:href="#a"/></mask><use xlink:href="#a" fill="currentColor" fill-rule="nonzero"/><path fill="currentColor" d="M0 0h16v16H0z" mask="url(#b)"/></g></svg>
